<svg xmlns="http://www.w3.org/2000/svg" width="23" height="21" viewBox="0 0 23 21" fill="none">
<path fill-rule="evenodd" clip-rule="evenodd" d="M7.54263 1.30642e-06H15.4573C16.4186 -3.27476e-05 17.2201 -5.5413e-05 17.8564 0.09071C18.5279 0.186527 19.1343 0.397287 19.6216 0.914307C20.1089 1.43133 20.3076 2.07472 20.3979 2.78735C20.4834 3.46252 20.4834 4.31298 20.4834 5.33288V13.6012L22.1016 15.3734L22.1056 15.3776L22.1132 15.3856L22.1216 15.3947L22.1276 15.4012L22.1382 15.413L22.1496 15.4258L22.1541 15.431L22.1628 15.4411L22.1723 15.4527L22.1811 15.4637C22.1838 15.4674 22.1884 15.4733 22.194 15.4807C22.5914 15.9699 22.9461 16.7001 22.9947 17.4301L22.9951 17.4344C22.9963 17.4462 22.997 17.4558 22.9974 17.4612L22.9983 17.4756L22.999 17.4908L22.9995 17.5045L22.9997 17.5116L22.9999 17.5293L23 17.5454V17.5546L22.9999 17.5672L22.9998 17.5786L22.9996 17.584C22.9996 17.596 22.9996 17.6087 22.9997 17.6217C22.9999 17.7702 23.0001 17.9838 22.9947 18.0752C22.9013 19.6442 21.7227 20.8947 20.244 20.9938C20.1507 21 20.0468 21 19.9117 21H3.08814C2.95316 21 2.84919 21 2.75587 20.9938C1.27716 20.8947 0.0986697 19.6442 0.00523152 18.0752C-0.000171081 17.9845 0.000149773 17.7727 0.000374436 17.6246C0.000395832 17.6104 0.000417301 17.5969 0.000428 17.5839L0.000278149 17.5786L8.5702e-05 17.5672L0 17.5546V17.5454L0.000107 17.5293L0.000353138 17.5116L0.000513574 17.5045L0.000962872 17.4908L0.00169032 17.4756L0.00262118 17.4612C0.00301701 17.4558 0.00375518 17.4462 0.00496408 17.4344L0.00540267 17.4301C0.0538763 16.7002 0.408501 15.9699 0.805972 15.4807C0.811545 15.4731 0.816135 15.4672 0.818949 15.4637L0.827721 15.4527L0.837211 15.4411L0.845823 15.431L0.850391 15.4258L0.861784 15.413L0.872333 15.4012L0.878313 15.3947L0.886668 15.3856L0.894275 15.3777L0.898361 15.3734L2.51661 13.6012V5.33288C2.51657 4.31298 2.51655 3.46252 2.6021 2.78735C2.6924 2.07472 2.89103 1.43133 3.3783 0.914307C3.86558 0.397287 4.47195 0.186527 5.14357 0.09071C5.77989 -5.5413e-05 6.58141 -3.27476e-05 7.54263 1.30642e-06ZM3.65878 14.7973L2.03895 16.5713C1.7952 16.8596 1.6175 17.2827 1.60518 17.5677C1.60517 17.5923 1.60515 17.6172 1.60512 17.6422C1.60506 17.7027 1.605 17.7637 1.60517 17.8207C1.6053 17.8629 1.60556 17.8995 1.60598 17.9287C1.60631 17.9511 1.60667 17.9631 1.6068 17.9671C1.64926 18.6802 2.18493 19.2494 2.85707 19.2945C2.89282 19.2968 2.94142 19.2973 3.11329 19.2973H19.8866C20.0585 19.2973 20.1071 19.2968 20.1428 19.2945C20.815 19.2494 21.3507 18.681 21.3931 17.9678C21.3929 17.9719 21.3934 17.9618 21.394 17.9284C21.3944 17.8993 21.3946 17.8626 21.3948 17.8205C21.3949 17.7619 21.3949 17.6988 21.3948 17.6366C21.3948 17.6134 21.3948 17.5904 21.3948 17.5677C21.3825 17.2828 21.2047 16.8596 20.9609 16.5713L19.3411 14.7973H3.65878ZM18.8786 13.0946V5.39189C18.8786 4.29761 18.8769 3.56254 18.8074 3.01423C18.741 2.49041 18.6264 2.26623 18.487 2.1183C18.3475 1.97037 18.1362 1.84866 17.6425 1.77824C17.1257 1.70452 16.433 1.7027 15.4017 1.7027H7.59826C6.56694 1.7027 5.87417 1.70452 5.35741 1.77824C4.86372 1.84866 4.65244 1.97037 4.51302 2.1183C4.3736 2.26623 4.2589 2.49041 4.19252 3.01423C4.12305 3.56254 4.12134 4.29761 4.12134 5.39189V13.0946H18.8786ZM21.8449 16.7703C21.8529 16.7675 21.8606 16.7648 21.868 16.762C21.871 16.7602 21.874 16.7583 21.8771 16.7564C21.8664 16.7612 21.8556 16.7658 21.8449 16.7703ZM21.8947 16.7726C21.901 16.7692 21.9072 16.7661 21.9133 16.7631C21.9161 16.7622 21.9188 16.7614 21.9217 16.7606C21.9126 16.7646 21.9036 16.7686 21.8947 16.7726ZM1.10565 16.7726C1.0994 16.7694 1.09332 16.7662 1.08741 16.7633C1.08471 16.7625 1.08196 16.7617 1.07915 16.761C1.08803 16.7648 1.09687 16.7687 1.10565 16.7726ZM1.15582 16.7705C1.14473 16.7659 1.13364 16.7612 1.12259 16.7563C1.12577 16.7582 1.12892 16.7602 1.13201 16.762C1.13954 16.7649 1.1475 16.7678 1.15582 16.7705ZM8.02304 17.3108C8.02304 16.8406 8.38228 16.4595 8.82541 16.4595H14.1745C14.6176 16.4595 14.9769 16.8406 14.9769 17.3108C14.9769 17.781 14.6176 18.1622 14.1745 18.1622H8.82541C8.38228 18.1622 8.02304 17.781 8.02304 17.3108Z" fill="black"/>
</svg>