<svg xmlns="http://www.w3.org/2000/svg" width="17" height="19" viewBox="0 0 17 19" fill="none">
  <path d="M8.5 7.72V17.8M8.5 7.72C8.5 5.36778 8.5 4.19167 8.13667 3.29324C7.81708 2.50296 7.30717 1.86044 6.67997 1.45777C5.96692 1 5.03351 1 3.16667 1H2.33333C1.86662 1 1.63327 1 1.45501 1.11444C1.29821 1.21511 1.17072 1.37574 1.09082 1.57331C1 1.79792 1 2.09195 1 2.68V14.02C1 14.6081 1 14.9021 1.09082 15.1267C1.17072 15.3243 1.29821 15.4849 1.45501 15.5856C1.63327 15.7 1.86662 15.7 2.33333 15.7H4.7889C5.23906 15.7 5.46413 15.7 5.68178 15.7489C5.87496 15.7923 6.06342 15.8641 6.24326 15.9631C6.44587 16.0745 6.63314 16.2318 7.00767 16.5465L8.5 17.8M8.5 7.72C8.5 5.36778 8.5 4.19167 8.86333 3.29324C9.18292 2.50296 9.69283 1.86044 10.32 1.45777C11.0331 1 11.9665 1 13.8333 1H14.6667C15.1334 1 15.3668 1 15.545 1.11444C15.7018 1.21511 15.8293 1.37574 15.9092 1.57331C16 1.79792 16 2.09195 16 2.68V14.02C16 14.6081 16 14.9021 15.9092 15.1267C15.8293 15.3243 15.7018 15.4849 15.545 15.5856C15.3668 15.7 15.1334 15.7 14.6667 15.7H12.2111C11.7609 15.7 11.5358 15.7 11.3182 15.7489C11.125 15.7923 10.9366 15.8641 10.7568 15.9631C10.5542 16.0745 10.3668 16.2318 9.99233 16.5465L8.5 17.8" stroke="black" stroke-linecap="round" stroke-linejoin="round"/>
</svg>