<svg xmlns="http://www.w3.org/2000/svg" width="19" height="19" viewBox="0 0 19 19" fill="none">
<g clip-path="url(#clip0_65_955)">
<path d="M9.50013 0C4.26192 0 0.000473022 4.26167 0.000473022 9.49989C0.000473022 14.7383 4.26192 19 9.50013 19C14.7383 19 19 14.7383 19 9.49989C19 4.26167 14.7381 0 9.50013 0ZM9.50013 17.6265C5.01939 17.6265 1.37372 13.9809 1.37372 9.49989C1.37372 5.01892 5.01916 1.37348 9.50013 1.37348C13.9811 1.37348 17.6265 5.01892 17.6265 9.49989C17.6265 13.9809 13.9811 17.6265 9.50013 17.6265Z" fill="black"/>
<path d="M12.2487 10.3743C12.245 10.3743 12.2418 10.3743 12.2381 10.3743L10.1866 10.405V5.03607C10.1866 4.65676 9.8792 4.34933 9.49989 4.34933C9.12058 4.34933 8.81315 4.65676 8.81315 5.03607V11.1023C8.81315 11.1036 8.81361 11.105 8.81361 11.1064C8.81361 11.1087 8.81315 11.1107 8.81315 11.1126C8.81361 11.1405 8.81887 11.1668 8.82253 11.1936C8.82482 11.2103 8.82505 11.2275 8.82826 11.244C8.83444 11.2735 8.84474 11.301 8.85458 11.3287C8.85962 11.3431 8.86282 11.3582 8.86877 11.3719C8.88068 11.4001 8.8967 11.4257 8.91204 11.452C8.91913 11.4637 8.9244 11.4765 8.93195 11.488C8.94935 11.5134 8.97018 11.5361 8.99079 11.5592C8.99948 11.5688 9.00658 11.5798 9.01574 11.5892C9.03794 11.6111 9.06289 11.6297 9.08784 11.6487C9.09792 11.6562 9.10684 11.6654 9.11714 11.6725C9.14416 11.6908 9.17369 11.7052 9.20322 11.7194C9.21352 11.7242 9.22267 11.7311 9.2332 11.7354C9.26754 11.7499 9.30417 11.7599 9.34125 11.7689C9.34812 11.7705 9.35453 11.7737 9.36162 11.775C9.40603 11.784 9.45204 11.789 9.4992 11.789C9.50263 11.789 9.5063 11.789 9.50973 11.789L12.2585 11.7478C12.6376 11.7421 12.9404 11.4298 12.935 11.0508C12.9297 10.6751 12.6232 10.3743 12.2487 10.3743Z" fill="black"/>
</g>
<defs>
<clipPath id="clip0_65_955">
<rect width="19" height="19" fill="white"/>
</clipPath>
</defs>
</svg>