<svg xmlns="http://www.w3.org/2000/svg" width="23" height="23" viewBox="0 0 23 23" fill="none">
<path d="M10.6221 2.40229C10.891 1.59102 11.0255 1.1854 11.2244 1.07298C11.3964 0.975674 11.6036 0.975674 11.7757 1.07298C11.9745 1.1854 12.1089 1.59102 12.3779 2.40229L14.1558 7.76559C14.2323 7.99649 14.2706 8.11193 14.3396 8.1979C14.4005 8.27385 14.4782 8.33304 14.5659 8.37032C14.6651 8.41254 14.7816 8.41502 15.0147 8.42L20.4284 8.53569C21.2474 8.55319 21.6568 8.56194 21.8202 8.7255C21.9616 8.86705 22.0256 9.0737 21.9906 9.27539C21.9501 9.50845 21.6238 9.76782 20.9711 10.2868L16.6561 13.7171C16.4703 13.8649 16.3775 13.9387 16.3208 14.034C16.2707 14.1183 16.2411 14.214 16.2343 14.3129C16.2268 14.425 16.2605 14.542 16.328 14.776L17.8961 20.2108C18.1332 21.0329 18.2518 21.444 18.154 21.6574C18.0693 21.8422 17.9016 21.9699 17.7078 21.9973C17.484 22.0288 17.1479 21.7836 16.4755 21.293L12.0309 18.0499C11.8395 17.9102 11.7439 17.8404 11.6399 17.8133C11.548 17.7894 11.4519 17.7894 11.3602 17.8133C11.2562 17.8404 11.1605 17.9102 10.9691 18.0499L6.5245 21.293C5.8522 21.7836 5.51605 22.0288 5.29217 21.9973C5.09842 21.9699 4.93077 21.8422 4.84609 21.6574C4.74824 21.444 4.86684 21.0329 5.10402 20.2108L6.67203 14.776C6.73953 14.542 6.77328 14.425 6.76568 14.3129C6.75896 14.214 6.72929 14.1183 6.67923 14.034C6.62257 13.9387 6.52969 13.8649 6.34393 13.7171L2.02899 10.2868C1.37629 9.76782 1.04994 9.50845 1.00943 9.27539C0.974359 9.0737 1.0384 8.86705 1.17982 8.7255C1.34322 8.56194 1.75267 8.5532 2.57155 8.53569L7.98528 8.42C8.21834 8.41502 8.33488 8.41254 8.43416 8.37032C8.52187 8.33304 8.59957 8.27385 8.66048 8.1979C8.72944 8.11193 8.76771 7.99649 8.84425 7.76559L10.6221 2.40229Z" stroke="black" stroke-width="2" stroke-linecap="round" stroke-linejoin="round"/>
</svg>