<svg width="44" height="46" viewBox="0 0 44 46" fill="none" xmlns="http://www.w3.org/2000/svg">
<path d="M1.27334 23.7667C1.27334 12.1909 10.6574 2.80684 22.2332 2.80684C33.809 2.80684 43.1931 12.1909 43.1931 23.7667V24.5334C43.1931 36.1092 33.809 45.4932 22.2332 45.4932C10.6574 45.4932 1.27334 36.1092 1.27334 24.5334V23.7667Z" fill="black" stroke="black"/>
<path d="M1.01343 21.4666C1.01343 10.1706 10.1706 1.01343 21.4666 1.01343C32.7625 1.01343 41.9197 10.1706 41.9197 21.4666V22.2333C41.9197 33.5292 32.7625 42.6864 21.4666 42.6864C10.1706 42.6864 1.01343 33.5292 1.01343 22.2332V21.4666Z" fill="white" stroke="black" stroke-width="2"/>
<path d="M32.8425 16.2421C32.5871 15.2824 31.8314 14.5252 30.8699 14.2658C29.1314 13.8001 22.1562 13.8001 22.1562 13.8001C22.1562 13.8001 15.1845 13.8001 13.4425 14.2658C12.4845 14.5217 11.7288 15.2788 11.4698 16.2421C11.005 17.9838 11.005 21.6201 11.005 21.6201C11.005 21.6201 11.005 25.2564 11.4698 26.9981C11.7253 27.9578 12.481 28.7149 13.4425 28.9744C15.1845 29.4401 22.1562 29.4401 22.1562 29.4401C22.1562 29.4401 29.1314 29.4401 30.8699 28.9744C31.8278 28.7185 32.5835 27.9614 32.8425 26.9981C33.3073 25.2564 33.3073 21.6201 33.3073 21.6201C33.3073 21.6201 33.3073 17.9838 32.8425 16.2421Z" fill="#FF3000"/>
<path d="M19.9281 24.972L25.7218 21.6201L19.9281 18.2682V24.972Z" fill="white"/>
</svg>
