<svg width="44" height="46" viewBox="0 0 44 46" fill="none" xmlns="http://www.w3.org/2000/svg">
<path d="M1.27334 23.7667C1.27334 12.1909 10.6574 2.80684 22.2332 2.80684C33.809 2.80684 43.1931 12.1909 43.1931 23.7667V24.5334C43.1931 36.1092 33.809 45.4932 22.2332 45.4932C10.6574 45.4932 1.27334 36.1092 1.27334 24.5334V23.7667Z" fill="black" stroke="black"/>
<path d="M1.01343 21.4666C1.01343 10.1706 10.1706 1.01343 21.4666 1.01343C32.7625 1.01343 41.9197 10.1706 41.9197 21.4666V22.2333C41.9197 33.5292 32.7625 42.6864 21.4666 42.6864C10.1706 42.6864 1.01343 33.5292 1.01343 22.2332V21.4666Z" fill="white" stroke="black" stroke-width="2"/>
<path d="M10.9248 13.0305C10.9248 12.1858 11.6463 11.5001 12.5358 11.5001H31.112C32.0019 11.5001 32.7231 12.1858 32.7231 13.0305V31.3344C32.7231 32.1794 32.0019 32.8645 31.112 32.8645H12.5358C11.6464 32.8645 10.9248 32.1795 10.9248 31.3347V13.0303V13.0305Z" fill="#006699"/>
<path d="M17.5496 29.3788V19.7605H14.2877V29.3788H17.5499H17.5496ZM15.9193 18.4475C17.0566 18.4475 17.7646 17.7089 17.7646 16.7859C17.7433 15.8419 17.0566 15.1239 15.941 15.1239C14.8246 15.1239 14.0954 15.8419 14.0954 16.7859C14.0954 17.7089 14.8032 18.4474 15.898 18.4474H15.9191L15.9193 18.4475ZM19.3551 29.3788H22.6168V24.0081C22.6168 23.721 22.6381 23.4332 22.7242 23.2281C22.9599 22.6536 23.4966 22.0588 24.3979 22.0588C25.5779 22.0588 26.0503 22.9407 26.0503 24.2339V29.3788H29.3118V23.864C29.3118 20.9098 27.7028 19.535 25.5568 19.535C23.7974 19.535 23.0246 20.4988 22.5953 21.1553H22.617V19.7608H19.3553C19.3979 20.6632 19.355 29.3792 19.355 29.3792L19.3551 29.3788Z" fill="white"/>
</svg>
