<svg width="30" height="30" viewBox="0 0 30 30" fill="none" xmlns="http://www.w3.org/2000/svg">
<path d="M7.5 9.75375V8.53453C7.5 4.4944 10.8579 1.21922 15 1.21922C19.1421 1.21922 22.5 4.4944 22.5 8.53453V9.75375H25C25.6904 9.75375 26.25 10.2996 26.25 10.973V25.6036C26.25 26.277 25.6904 26.8228 25 26.8228H5C4.30965 26.8228 3.75 26.277 3.75 25.6036V10.973C3.75 10.2996 4.30965 9.75375 5 9.75375H7.5ZM23.75 12.1922H6.25V24.3844H23.75V12.1922ZM13.75 19.1812C13.0028 18.7596 12.5 17.9717 12.5 17.0691C12.5 15.7223 13.6193 14.6306 15 14.6306C16.3807 14.6306 17.5 15.7223 17.5 17.0691C17.5 17.9717 16.9972 18.7596 16.25 19.1812V21.9459H13.75V19.1812ZM10 9.75375H20V8.53453C20 5.84111 17.7614 3.65766 15 3.65766C12.2386 3.65766 10 5.84111 10 8.53453V9.75375Z" fill="#1C1C1C"/>
</svg>
