<svg width="44" height="46" viewBox="0 0 44 46" fill="none" xmlns="http://www.w3.org/2000/svg">
<path d="M1.27334 23.7667C1.27334 12.1909 10.6574 2.80684 22.2332 2.80684C33.809 2.80684 43.1931 12.1909 43.1931 23.7667V24.5334C43.1931 36.1092 33.809 45.4932 22.2332 45.4932C10.6574 45.4932 1.27334 36.1092 1.27334 24.5334V23.7667Z" fill="black" stroke="black"/>
<path d="M1.01343 21.4666C1.01343 10.1706 10.1706 1.01343 21.4666 1.01343C32.7625 1.01343 41.9197 10.1706 41.9197 21.4666V22.2333C41.9197 33.5292 32.7625 42.6864 21.4666 42.6864C10.1706 42.6864 1.01343 33.5292 1.01343 22.2332V21.4666Z" fill="white" stroke="black" stroke-width="2"/>
<path d="M31.6151 15.7765C30.9691 16.0543 30.2899 16.2478 29.5943 16.3521C29.9195 16.2964 30.398 15.7115 30.5885 15.4747C30.8778 15.1176 31.0983 14.7099 31.2388 14.2724C31.2388 14.2399 31.2713 14.1935 31.2388 14.1703C31.2224 14.1613 31.2041 14.1566 31.1854 14.1566C31.1667 14.1566 31.1484 14.1613 31.132 14.1703C30.3767 14.579 29.5729 14.8909 28.7396 15.0987C28.7105 15.1076 28.6796 15.1084 28.6502 15.101C28.6207 15.0936 28.5938 15.0784 28.5723 15.0569C28.5075 14.9797 28.4376 14.9068 28.3633 14.8387C28.0234 14.5344 27.6378 14.2853 27.2205 14.1006C26.6573 13.8697 26.0489 13.7697 25.4413 13.8082C24.8518 13.8454 24.2762 14.0034 23.7504 14.2724C23.2326 14.556 22.7775 14.9413 22.4125 15.4051C22.0285 15.8825 21.7513 16.4365 21.5995 17.0299C21.4744 17.5943 21.4602 18.1777 21.5577 18.7475C21.5577 18.845 21.5577 18.8589 21.4741 18.845C18.1619 18.3576 15.4443 17.1831 13.2238 14.6623C13.1263 14.5509 13.0752 14.5509 12.9962 14.6623C12.0299 16.1293 12.4991 18.4504 13.7069 19.597C13.8695 19.7502 14.0368 19.8988 14.2133 20.038C13.6595 19.9988 13.1193 19.8488 12.6245 19.597C12.5316 19.5367 12.4805 19.5692 12.4759 19.6806C12.4627 19.8351 12.4627 19.9904 12.4759 20.1448C12.5728 20.8851 12.8648 21.5863 13.3218 22.1768C13.7789 22.7674 14.3847 23.226 15.0773 23.5058C15.2462 23.5781 15.4221 23.6325 15.6023 23.6683C15.0896 23.7691 14.5638 23.7848 14.0461 23.7147C13.9346 23.6915 13.8928 23.7518 13.9346 23.8586C14.6174 25.7155 16.0993 26.2819 17.1864 26.5975C17.335 26.6208 17.4837 26.6208 17.6509 26.6579C17.6509 26.6579 17.6509 26.6579 17.623 26.6857C17.3025 27.2707 16.0064 27.6653 15.4118 27.8695C14.3265 28.2591 13.1693 28.408 12.0206 28.3059C11.8395 28.278 11.7977 28.2827 11.7512 28.3059C11.7048 28.3291 11.7512 28.3802 11.8023 28.4266C12.0346 28.5798 12.2668 28.7144 12.5084 28.8444C13.2275 29.2364 13.9878 29.5477 14.7754 29.7728C18.8541 30.8963 23.4438 30.0699 26.5051 27.0293C28.9115 24.6432 29.7569 21.3518 29.7569 18.0558C29.7569 17.9305 29.9102 17.8562 29.9985 17.7912C30.6073 17.3172 31.144 16.7574 31.5919 16.1293C31.6694 16.0357 31.7092 15.9164 31.7034 15.795C31.7034 15.7254 31.7034 15.7393 31.6151 15.7765Z" fill="#33CCFF"/>
</svg>
