<svg width="44" height="46" viewBox="0 0 44 46" fill="none" xmlns="http://www.w3.org/2000/svg">
<path d="M1.27346 23.7667C1.27346 12.1909 10.6575 2.80684 22.2333 2.80684C33.8091 2.80684 43.1932 12.1909 43.1932 23.7667V24.5334C43.1932 36.1092 33.8091 45.4932 22.2333 45.4932C10.6575 45.4932 1.27346 36.1092 1.27346 24.5334V23.7667Z" fill="black" stroke="black"/>
<path d="M1.01343 21.4666C1.01343 10.1706 10.1706 1.01343 21.4666 1.01343C32.7625 1.01343 41.9197 10.1706 41.9197 21.4666V22.2333C41.9197 33.5292 32.7625 42.6864 21.4666 42.6864C10.1706 42.6864 1.01343 33.5292 1.01343 22.2332V21.4666Z" fill="white" stroke="black" stroke-width="2"/>
<path d="M26.0879 23.2629L26.6454 19.7264H23.2113V17.4278C23.2113 16.4608 23.6907 15.5159 25.2238 15.5159H26.807V12.5044C25.885 12.3576 24.9534 12.2781 24.0196 12.2667C21.1932 12.2667 19.348 13.9631 19.348 17.0299V19.7264H16.2149V23.2629H19.348V31.8167H23.2113V23.2629H26.0879Z" fill="#337FFF"/>
</svg>
