<svg width="30" height="30" viewBox="0 0 30 30" fill="none" xmlns="http://www.w3.org/2000/svg">
<path d="M25 26.8228H22.5V24.3844C22.5 22.3643 20.8211 20.7267 18.75 20.7267H11.25C9.17894 20.7267 7.5 22.3643 7.5 24.3844V26.8228H5V24.3844C5 21.0176 7.79822 18.2883 11.25 18.2883H18.75C22.2017 18.2883 25 21.0176 25 24.3844V26.8228ZM15 15.8499C10.8579 15.8499 7.5 12.5747 7.5 8.53454C7.5 4.4944 10.8579 1.21922 15 1.21922C19.1421 1.21922 22.5 4.4944 22.5 8.53454C22.5 12.5747 19.1421 15.8499 15 15.8499ZM15 13.4114C17.7614 13.4114 20 11.228 20 8.53454C20 5.84111 17.7614 3.65766 15 3.65766C12.2386 3.65766 10 5.84111 10 8.53454C10 11.228 12.2386 13.4114 15 13.4114Z" fill="#1C1C1C"/>
</svg>
