<svg width="18" height="18" viewBox="0 0 18 18" fill="none" xmlns="http://www.w3.org/2000/svg">
<path d="M10.896 4.06399C11.6423 4.20951 12.3283 4.57429 12.866 5.11163C13.4037 5.64897 13.7687 6.33443 13.9143 7.08028M10.896 1.00952C12.4466 1.18167 13.8926 1.8756 14.9965 2.97737C16.1005 4.07914 16.7967 5.52327 16.9709 7.07265M16.2068 13.1663V15.4572C16.2076 15.6698 16.164 15.8803 16.0788 16.0752C15.9935 16.2701 15.8685 16.445 15.7117 16.5887C15.5548 16.7325 15.3697 16.842 15.1681 16.9101C14.9665 16.9782 14.7529 17.0035 14.5409 16.9844C12.1895 16.7291 9.93086 15.9261 7.94638 14.6401C6.10008 13.4677 4.53474 11.9034 3.36152 10.0584C2.0701 8.06627 1.26643 5.79816 1.0156 3.43783C0.996506 3.22666 1.02162 3.01384 1.08934 2.8129C1.15706 2.61196 1.26591 2.42732 1.40896 2.27073C1.552 2.11414 1.72611 1.98902 1.92019 1.90335C2.11427 1.81768 2.32407 1.77334 2.53625 1.77314H4.82868C5.19952 1.76949 5.55904 1.90072 5.84022 2.14237C6.1214 2.38402 6.30506 2.7196 6.35696 3.08656C6.45372 3.81969 6.63316 4.53952 6.89186 5.23233C6.99467 5.50564 7.01692 5.80268 6.95598 6.08825C6.89503 6.37382 6.75345 6.63594 6.548 6.84356L5.57754 7.81335C6.66534 9.72511 8.24933 11.308 10.1624 12.3951L11.1329 11.4253C11.3406 11.22 11.6029 11.0785 11.8887 11.0176C12.1744 10.9567 12.4717 10.9789 12.7452 11.0816C13.4385 11.3402 14.1588 11.5195 14.8924 11.6162C15.2636 11.6685 15.6026 11.8553 15.845 12.1412C16.0873 12.427 16.2161 12.7918 16.2068 13.1663Z" stroke="black" stroke-width="2" stroke-linecap="round" stroke-linejoin="round"/>
</svg>
